# xmcd
#
# Track frame offsets:
#	182
#	17202
#	36192
#	54247
#	71385
#	89532
#	103785
#	120040
#	133997
#	151085
#
# Disc length: 2194 seconds
#
# Revision: 0
# Processed by: cddbd v1.5.2PL0 Copyright (c) Steve Scherf et al.
# Submitted via: audiograbber 1.83.01
#
DISCID=7908900a
DTITLE=The Marvelettes - Now!
DYEAR=1990
DGENRE=Soul
TTITLE0=Don't Mess With Me
TTITLE1=Secret Love Affair
TTITLE2=Just In The Nick Of Time
TTITLE3=My Baby Must Be A Magician
TTITLE4=You Bring The Love Into My Life
TTITLE5=Too Many Fish In The Sea
TTITLE6=Holding On With Both Hands
TTITLE7=Beechwood 4-5789
TTITLE8=Used To Ba A Playboy
TTITLE9=When You're Young And In Love
EXTD=
EXTT0=
EXTT1=
EXTT2=
EXTT3=
EXTT4=
EXTT5=
EXTT6=
EXTT7=
EXTT8=
EXTT9=
PLAYORDER=
